<?xml version="1.0" encoding="utf-8" standalone="no"?>
<!DOCTYPE svg PUBLIC "-//W3C//DTD SVG 1.1//EN"
  "http://www.w3.org/Graphics/SVG/1.1/DTD/svg11.dtd">
<svg xmlns:xlink="http://www.w3.org/1999/xlink" width="651.782286pt" height="315.08pt" viewBox="0 0 651.782286 315.08" xmlns="http://www.w3.org/2000/svg" version="1.1">
 <metadata>
  <rdf:RDF xmlns:dc="http://purl.org/dc/elements/1.1/" xmlns:cc="http://creativecommons.org/ns#" xmlns:rdf="http://www.w3.org/1999/02/22-rdf-syntax-ns#">
   <cc:Work>
    <dc:type rdf:resource="http://purl.org/dc/dcmitype/StillImage"/>
    <dc:date>2026-03-13T15:44:18.270866</dc:date>
    <dc:format>image/svg+xml</dc:format>
    <dc:creator>
     <cc:Agent>
      <dc:title>Matplotlib v3.9.0, https://matplotlib.org/</dc:title>
     </cc:Agent>
    </dc:creator>
   </cc:Work>
  </rdf:RDF>
 </metadata>
 <defs>
  <style type="text/css">*{stroke-linejoin: round; stroke-linecap: butt}</style>
 </defs>
 <g id="figure_1">
  <g id="patch_1">
   <path d="M 0 315.08 
L 651.782286 315.08 
L 651.782286 0 
L 0 0 
z
" style="fill: #ffffff"/>
  </g>
  <g id="axes_1">
   <g id="line2d_1">
    <path d="M 341.1 171.58 
L 341.1 126.58 
L 419.042286 171.58 
L 341.1 216.58 
L 341.1 171.58 
M 419.042286 171.58 
" clip-path="url(#p15b9951af5)" style="fill: none; stroke: #000000; stroke-width: 2; stroke-linecap: round"/>
   </g>
   <g id="line2d_2">
    <path d="M 347.242786 149.08 
L 354.442786 149.08 
" clip-path="url(#p15b9951af5)" style="fill: none; stroke: #000000; stroke-width: 2; stroke-linecap: round"/>
   </g>
   <g id="line2d_3">
    <path d="M 347.242786 194.08 
L 354.442786 194.08 
" clip-path="url(#p15b9951af5)" style="fill: none; stroke: #000000; stroke-width: 2; stroke-linecap: round"/>
   </g>
   <g id="line2d_4">
    <path d="M 350.842786 197.68 
L 350.842786 190.48 
" clip-path="url(#p15b9951af5)" style="fill: none; stroke: #000000; stroke-width: 2; stroke-linecap: round"/>
   </g>
   <g id="line2d_5">
    <path d="M 318.6 149.08 
L 341.1 149.08 
" clip-path="url(#p15b9951af5)" style="fill: none; stroke: #000000; stroke-width: 2; stroke-linecap: round"/>
   </g>
   <g id="line2d_6">
    <path d="M 318.6 194.08 
L 341.1 194.08 
" clip-path="url(#p15b9951af5)" style="fill: none; stroke: #000000; stroke-width: 2; stroke-linecap: round"/>
   </g>
   <g id="line2d_7">
    <path d="M 419.042286 171.58 
L 441.542286 171.58 
" clip-path="url(#p15b9951af5)" style="fill: none; stroke: #000000; stroke-width: 2; stroke-linecap: round"/>
   </g>
   <g id="line2d_8">
    <path d="M 318.6 194.08 
L 318.6 203.98 
L 318.6 213.88 
" clip-path="url(#p15b9951af5)" style="fill: none; stroke: #000000; stroke-width: 2; stroke-linecap: round"/>
   </g>
   <g id="line2d_9">
    <path d="M 318.6 213.88 
L 318.6 228.28 
L 309.6 228.28 
L 318.6 237.28 
L 327.6 228.28 
L 318.6 228.28 
" clip-path="url(#p15b9951af5)" style="fill: none; stroke: #000000; stroke-width: 2; stroke-linecap: round"/>
   </g>
   <g id="line2d_10">
    <path d="M 318.6 149.08 
L 304.74 149.08 
L 290.88 149.08 
" clip-path="url(#p15b9951af5)" style="fill: none; stroke: #000000; stroke-width: 2; stroke-linecap: round"/>
   </g>
   <g id="line2d_11">
    <path d="M 441.542286 171.58 
L 457.382286 171.58 
L 473.222286 171.58 
" clip-path="url(#p15b9951af5)" style="fill: none; stroke: #000000; stroke-width: 2; stroke-linecap: round"/>
   </g>
   <g id="line2d_12">
    <path d="M 473.222286 171.58 
L 485.102286 171.58 
L 496.982286 171.58 
" clip-path="url(#p15b9951af5)" style="fill: none; stroke: #000000; stroke-width: 2; stroke-linecap: round"/>
   </g>
   <g id="line2d_13">
    <path d="M 496.982286 171.58 
L 496.982286 153.58 
L 561.782286 153.58 
L 561.782286 189.58 
L 496.982286 189.58 
L 496.982286 171.58 
" clip-path="url(#p15b9951af5)" style="fill: none; stroke: #000000; stroke-width: 2; stroke-linecap: round"/>
   </g>
   <g id="line2d_14">
    <path d="M 561.782286 171.58 
L 575.642286 171.58 
L 589.502286 171.58 
" clip-path="url(#p15b9951af5)" style="fill: none; stroke: #000000; stroke-width: 2; stroke-linecap: round"/>
   </g>
   <g id="line2d_15">
    <path d="M 589.502286 171.58 
L 589.502286 157.18 
L 647.102286 157.18 
L 647.102286 185.98 
L 589.502286 185.98 
L 589.502286 171.58 
" clip-path="url(#p15b9951af5)" style="fill: none; stroke: #000000; stroke-width: 2; stroke-linecap: round"/>
   </g>
   <g id="line2d_16">
    <path d="M 290.88 149.08 
L 290.88 121.36 
L 290.88 93.64 
" clip-path="url(#p15b9951af5)" style="fill: none; stroke: #000000; stroke-width: 2; stroke-linecap: round"/>
   </g>
   <g id="line2d_17">
    <path d="M 290.88 93.64 
L 364.051143 93.64 
L 364.051143 84.64 
L 400.051143 84.64 
L 400.051143 102.64 
L 364.051143 102.64 
L 364.051143 93.64 
M 400.051143 93.64 
L 473.222286 93.64 
" clip-path="url(#p15b9951af5)" style="fill: none; stroke: #000000; stroke-width: 2; stroke-linecap: round"/>
   </g>
   <g id="line2d_18">
    <path d="M 473.222286 93.64 
L 473.222286 132.61 
L 473.222286 171.58 
" clip-path="url(#p15b9951af5)" style="fill: none; stroke: #000000; stroke-width: 2; stroke-linecap: round"/>
   </g>
   <g id="line2d_19">
    <path d="M 290.88 149.08 
L 290.88 89.68 
L 290.88 30.28 
" clip-path="url(#p15b9951af5)" style="fill: none; stroke: #000000; stroke-width: 2; stroke-linecap: round"/>
   </g>
   <g id="line2d_20">
    <path d="M 290.88 30.28 
L 245.52 30.28 
L 245.52 39.28 
L 209.52 39.28 
L 209.52 21.28 
L 245.52 21.28 
L 245.52 30.28 
M 209.52 30.28 
L 164.16 30.28 
" clip-path="url(#p15b9951af5)" style="fill: none; stroke: #000000; stroke-width: 2; stroke-linecap: round"/>
   </g>
   <g id="line2d_21">
    <path d="M 164.16 30.28 
L 150.3 30.28 
L 136.44 30.28 
" clip-path="url(#p15b9951af5)" style="fill: none; stroke: #000000; stroke-width: 2; stroke-linecap: round"/>
   </g>
   <g id="line2d_22">
    <path d="M 78.84 30.28 
L 78.84 15.88 
L 136.44 15.88 
L 136.44 44.68 
L 78.84 44.68 
L 78.84 30.28 
" clip-path="url(#p15b9951af5)" style="fill: none; stroke: #000000; stroke-width: 2; stroke-linecap: round"/>
   </g>
   <g id="line2d_23">
    <path d="M 290.88 149.08 
L 290.88 121.36 
L 290.88 93.64 
" clip-path="url(#p15b9951af5)" style="fill: none; stroke: #000000; stroke-width: 2; stroke-linecap: round"/>
   </g>
   <g id="line2d_24">
    <path d="M 290.88 93.64 
L 245.52 93.64 
L 245.52 102.64 
L 209.52 102.64 
L 209.52 84.64 
L 245.52 84.64 
L 245.52 93.64 
M 209.52 93.64 
L 164.16 93.64 
" clip-path="url(#p15b9951af5)" style="fill: none; stroke: #000000; stroke-width: 2; stroke-linecap: round"/>
   </g>
   <g id="line2d_25">
    <path d="M 164.16 93.64 
L 150.3 93.64 
L 136.44 93.64 
" clip-path="url(#p15b9951af5)" style="fill: none; stroke: #000000; stroke-width: 2; stroke-linecap: round"/>
   </g>
   <g id="line2d_26">
    <path d="M 78.84 93.64 
L 78.84 79.24 
L 136.44 79.24 
L 136.44 108.04 
L 78.84 108.04 
L 78.84 93.64 
" clip-path="url(#p15b9951af5)" style="fill: none; stroke: #000000; stroke-width: 2; stroke-linecap: round"/>
   </g>
   <g id="line2d_27">
    <path d="M 290.88 149.08 
" clip-path="url(#p15b9951af5)" style="fill: none; stroke: #000000; stroke-width: 2; stroke-linecap: round"/>
   </g>
   <g id="line2d_28">
    <path d="M 290.88 149.08 
L 245.52 149.08 
L 245.52 158.08 
L 209.52 158.08 
L 209.52 140.08 
L 245.52 140.08 
L 245.52 149.08 
M 209.52 149.08 
L 164.16 149.08 
" clip-path="url(#p15b9951af5)" style="fill: none; stroke: #000000; stroke-width: 2; stroke-linecap: round"/>
   </g>
   <g id="line2d_29">
    <path d="M 164.16 149.08 
L 150.3 149.08 
L 136.44 149.08 
" clip-path="url(#p15b9951af5)" style="fill: none; stroke: #000000; stroke-width: 2; stroke-linecap: round"/>
   </g>
   <g id="line2d_30">
    <path d="M 78.84 149.08 
L 78.84 134.68 
L 136.44 134.68 
L 136.44 163.48 
L 78.84 163.48 
L 78.84 149.08 
" clip-path="url(#p15b9951af5)" style="fill: none; stroke: #000000; stroke-width: 2; stroke-linecap: round"/>
   </g>
   <g id="patch_2">
    <path d="M 318.6 151.78 
C 319.316048 151.78 320.002866 151.495511 320.509188 150.989188 
C 321.015511 150.482866 321.3 149.796048 321.3 149.08 
C 321.3 148.363952 321.015511 147.677134 320.509188 147.170812 
C 320.002866 146.664489 319.316048 146.38 318.6 146.38 
C 317.883952 146.38 317.197134 146.664489 316.690812 147.170812 
C 316.184489 147.677134 315.9 148.363952 315.9 149.08 
C 315.9 149.796048 316.184489 150.482866 316.690812 150.989188 
C 317.197134 151.495511 317.883952 151.78 318.6 151.78 
z
" clip-path="url(#p15b9951af5)" style="stroke: #000000; stroke-width: 2; stroke-linejoin: miter"/>
   </g>
   <g id="text_1">
    <!-- clip -->
    <g transform="translate(518.070255 168.876406) scale(0.13 -0.13)">
     <defs>
      <path id="DejaVuSans-63" d="M 3122 3366 
L 3122 2828 
Q 2878 2963 2633 3030 
Q 2388 3097 2138 3097 
Q 1578 3097 1268 2742 
Q 959 2388 959 1747 
Q 959 1106 1268 751 
Q 1578 397 2138 397 
Q 2388 397 2633 464 
Q 2878 531 3122 666 
L 3122 134 
Q 2881 22 2623 -34 
Q 2366 -91 2075 -91 
Q 1284 -91 818 406 
Q 353 903 353 1747 
Q 353 2603 823 3093 
Q 1294 3584 2113 3584 
Q 2378 3584 2631 3529 
Q 2884 3475 3122 3366 
z
" transform="scale(0.015625)"/>
      <path id="DejaVuSans-6c" d="M 603 4863 
L 1178 4863 
L 1178 0 
L 603 0 
L 603 4863 
z
" transform="scale(0.015625)"/>
      <path id="DejaVuSans-69" d="M 603 3500 
L 1178 3500 
L 1178 0 
L 603 0 
L 603 3500 
z
M 603 4863 
L 1178 4863 
L 1178 4134 
L 603 4134 
L 603 4863 
z
" transform="scale(0.015625)"/>
      <path id="DejaVuSans-70" d="M 1159 525 
L 1159 -1331 
L 581 -1331 
L 581 3500 
L 1159 3500 
L 1159 2969 
Q 1341 3281 1617 3432 
Q 1894 3584 2278 3584 
Q 2916 3584 3314 3078 
Q 3713 2572 3713 1747 
Q 3713 922 3314 415 
Q 2916 -91 2278 -91 
Q 1894 -91 1617 61 
Q 1341 213 1159 525 
z
M 3116 1747 
Q 3116 2381 2855 2742 
Q 2594 3103 2138 3103 
Q 1681 3103 1420 2742 
Q 1159 2381 1159 1747 
Q 1159 1113 1420 752 
Q 1681 391 2138 391 
Q 2594 391 2855 752 
Q 3116 1113 3116 1747 
z
" transform="scale(0.015625)"/>
     </defs>
     <use xlink:href="#DejaVuSans-63"/>
     <use xlink:href="#DejaVuSans-6c" x="54.980469"/>
     <use xlink:href="#DejaVuSans-69" x="82.763672"/>
     <use xlink:href="#DejaVuSans-70" x="110.546875"/>
    </g>
    <!-- activation -->
    <g transform="translate(497.190021 181.457969) scale(0.13 -0.13)">
     <defs>
      <path id="DejaVuSans-61" d="M 2194 1759 
Q 1497 1759 1228 1600 
Q 959 1441 959 1056 
Q 959 750 1161 570 
Q 1363 391 1709 391 
Q 2188 391 2477 730 
Q 2766 1069 2766 1631 
L 2766 1759 
L 2194 1759 
z
M 3341 1997 
L 3341 0 
L 2766 0 
L 2766 531 
Q 2569 213 2275 61 
Q 1981 -91 1556 -91 
Q 1019 -91 701 211 
Q 384 513 384 1019 
Q 384 1609 779 1909 
Q 1175 2209 1959 2209 
L 2766 2209 
L 2766 2266 
Q 2766 2663 2505 2880 
Q 2244 3097 1772 3097 
Q 1472 3097 1187 3025 
Q 903 2953 641 2809 
L 641 3341 
Q 956 3463 1253 3523 
Q 1550 3584 1831 3584 
Q 2591 3584 2966 3190 
Q 3341 2797 3341 1997 
z
" transform="scale(0.015625)"/>
      <path id="DejaVuSans-74" d="M 1172 4494 
L 1172 3500 
L 2356 3500 
L 2356 3053 
L 1172 3053 
L 1172 1153 
Q 1172 725 1289 603 
Q 1406 481 1766 481 
L 2356 481 
L 2356 0 
L 1766 0 
Q 1100 0 847 248 
Q 594 497 594 1153 
L 594 3053 
L 172 3053 
L 172 3500 
L 594 3500 
L 594 4494 
L 1172 4494 
z
" transform="scale(0.015625)"/>
      <path id="DejaVuSans-76" d="M 191 3500 
L 800 3500 
L 1894 563 
L 2988 3500 
L 3597 3500 
L 2284 0 
L 1503 0 
L 191 3500 
z
" transform="scale(0.015625)"/>
      <path id="DejaVuSans-6f" d="M 1959 3097 
Q 1497 3097 1228 2736 
Q 959 2375 959 1747 
Q 959 1119 1226 758 
Q 1494 397 1959 397 
Q 2419 397 2687 759 
Q 2956 1122 2956 1747 
Q 2956 2369 2687 2733 
Q 2419 3097 1959 3097 
z
M 1959 3584 
Q 2709 3584 3137 3096 
Q 3566 2609 3566 1747 
Q 3566 888 3137 398 
Q 2709 -91 1959 -91 
Q 1206 -91 779 398 
Q 353 888 353 1747 
Q 353 2609 779 3096 
Q 1206 3584 1959 3584 
z
" transform="scale(0.015625)"/>
      <path id="DejaVuSans-6e" d="M 3513 2113 
L 3513 0 
L 2938 0 
L 2938 2094 
Q 2938 2591 2744 2837 
Q 2550 3084 2163 3084 
Q 1697 3084 1428 2787 
Q 1159 2491 1159 1978 
L 1159 0 
L 581 0 
L 581 3500 
L 1159 3500 
L 1159 2956 
Q 1366 3272 1645 3428 
Q 1925 3584 2291 3584 
Q 2894 3584 3203 3211 
Q 3513 2838 3513 2113 
z
" transform="scale(0.015625)"/>
     </defs>
     <use xlink:href="#DejaVuSans-61"/>
     <use xlink:href="#DejaVuSans-63" x="61.279297"/>
     <use xlink:href="#DejaVuSans-74" x="116.259766"/>
     <use xlink:href="#DejaVuSans-69" x="155.46875"/>
     <use xlink:href="#DejaVuSans-76" x="183.251953"/>
     <use xlink:href="#DejaVuSans-61" x="242.431641"/>
     <use xlink:href="#DejaVuSans-74" x="303.710938"/>
     <use xlink:href="#DejaVuSans-69" x="342.919922"/>
     <use xlink:href="#DejaVuSans-6f" x="370.703125"/>
     <use xlink:href="#DejaVuSans-6e" x="431.884766"/>
    </g>
   </g>
   <g id="text_2">
    <!-- $\hat{x}^l_i$ -->
    <g transform="translate(612.907286 175.74) scale(0.13 -0.13)">
     <defs>
      <path id="DejaVuSans-302" d="M -1831 5119 
L -1369 5119 
L -603 3944 
L -1038 3944 
L -1600 4709 
L -2163 3944 
L -2597 3944 
L -1831 5119 
z
M -1600 3584 
L -1600 3584 
z
" transform="scale(0.015625)"/>
      <path id="DejaVuSans-Oblique-78" d="M 3841 3500 
L 2234 1784 
L 3219 0 
L 2559 0 
L 1819 1388 
L 531 0 
L -166 0 
L 1556 1844 
L 641 3500 
L 1300 3500 
L 1972 2234 
L 3144 3500 
L 3841 3500 
z
" transform="scale(0.015625)"/>
      <path id="DejaVuSans-Oblique-6c" d="M 1172 4863 
L 1747 4863 
L 800 0 
L 225 0 
L 1172 4863 
z
" transform="scale(0.015625)"/>
      <path id="DejaVuSans-Oblique-69" d="M 1172 4863 
L 1747 4863 
L 1606 4134 
L 1031 4134 
L 1172 4863 
z
M 909 3500 
L 1484 3500 
L 800 0 
L 225 0 
L 909 3500 
z
" transform="scale(0.015625)"/>
     </defs>
     <use xlink:href="#DejaVuSans-302" transform="translate(62.373047 11.653125)"/>
     <use xlink:href="#DejaVuSans-Oblique-78" transform="translate(0 0.465625)"/>
     <use xlink:href="#DejaVuSans-Oblique-6c" transform="translate(60.136719 38.810938) scale(0.7)"/>
     <use xlink:href="#DejaVuSans-Oblique-69" transform="translate(60.136719 -26.878125) scale(0.7)"/>
    </g>
   </g>
   <g id="text_3">
    <!-- $R_f$ -->
    <g transform="translate(375.746143 78.336406) scale(0.13 -0.13)">
     <defs>
      <path id="DejaVuSans-Oblique-52" d="M 1613 4147 
L 1294 2491 
L 2106 2491 
Q 2584 2491 2879 2755 
Q 3175 3019 3175 3444 
Q 3175 3784 2976 3965 
Q 2778 4147 2406 4147 
L 1613 4147 
z
M 2772 2241 
Q 2972 2194 3105 2009 
Q 3238 1825 3413 1275 
L 3809 0 
L 3144 0 
L 2778 1197 
Q 2638 1659 2453 1815 
Q 2269 1972 1888 1972 
L 1191 1972 
L 806 0 
L 172 0 
L 1081 4666 
L 2503 4666 
Q 3150 4666 3495 4373 
Q 3841 4081 3841 3531 
Q 3841 3044 3547 2687 
Q 3253 2331 2772 2241 
z
" transform="scale(0.015625)"/>
      <path id="DejaVuSans-Oblique-66" d="M 3059 4863 
L 2969 4384 
L 2419 4384 
Q 2106 4384 1964 4261 
Q 1822 4138 1753 3809 
L 1691 3500 
L 2638 3500 
L 2553 3053 
L 1606 3053 
L 1013 0 
L 434 0 
L 1031 3053 
L 481 3053 
L 563 3500 
L 1113 3500 
L 1159 3744 
Q 1278 4363 1576 4613 
Q 1875 4863 2516 4863 
L 3059 4863 
z
" transform="scale(0.015625)"/>
     </defs>
     <use xlink:href="#DejaVuSans-Oblique-52" transform="translate(0 0.09375)"/>
     <use xlink:href="#DejaVuSans-Oblique-66" transform="translate(69.482422 -16.3125) scale(0.7)"/>
    </g>
   </g>
   <g id="text_4">
    <!-- $R_1$ -->
    <g transform="translate(219.915 14.976406) scale(0.13 -0.13)">
     <defs>
      <path id="DejaVuSans-31" d="M 794 531 
L 1825 531 
L 1825 4091 
L 703 3866 
L 703 4441 
L 1819 4666 
L 2450 4666 
L 2450 531 
L 3481 531 
L 3481 0 
L 794 0 
L 794 531 
z
" transform="scale(0.015625)"/>
     </defs>
     <use xlink:href="#DejaVuSans-Oblique-52" transform="translate(0 0.09375)"/>
     <use xlink:href="#DejaVuSans-31" transform="translate(69.482422 -16.3125) scale(0.7)"/>
    </g>
   </g>
   <g id="text_5">
    <!-- $x^{l-1}_1$ -->
    <g transform="translate(93.535 34.44) scale(0.13 -0.13)">
     <defs>
      <path id="DejaVuSans-2212" d="M 678 2272 
L 4684 2272 
L 4684 1741 
L 678 1741 
L 678 2272 
z
" transform="scale(0.015625)"/>
     </defs>
     <use xlink:href="#DejaVuSans-Oblique-78" transform="translate(0 0.529688)"/>
     <use xlink:href="#DejaVuSans-Oblique-6c" transform="translate(63.645833 38.810938) scale(0.7)"/>
     <use xlink:href="#DejaVuSans-2212" transform="translate(96.731771 38.810938) scale(0.7)"/>
     <use xlink:href="#DejaVuSans-31" transform="translate(169.02181 38.810938) scale(0.7)"/>
     <use xlink:href="#DejaVuSans-31" transform="translate(59.179688 -26.814063) scale(0.7)"/>
    </g>
   </g>
   <g id="text_6">
    <!-- $R_2$ -->
    <g transform="translate(219.915 78.336406) scale(0.13 -0.13)">
     <defs>
      <path id="DejaVuSans-32" d="M 1228 531 
L 3431 531 
L 3431 0 
L 469 0 
L 469 531 
Q 828 903 1448 1529 
Q 2069 2156 2228 2338 
Q 2531 2678 2651 2914 
Q 2772 3150 2772 3378 
Q 2772 3750 2511 3984 
Q 2250 4219 1831 4219 
Q 1534 4219 1204 4116 
Q 875 4013 500 3803 
L 500 4441 
Q 881 4594 1212 4672 
Q 1544 4750 1819 4750 
Q 2544 4750 2975 4387 
Q 3406 4025 3406 3419 
Q 3406 3131 3298 2873 
Q 3191 2616 2906 2266 
Q 2828 2175 2409 1742 
Q 1991 1309 1228 531 
z
" transform="scale(0.015625)"/>
     </defs>
     <use xlink:href="#DejaVuSans-Oblique-52" transform="translate(0 0.09375)"/>
     <use xlink:href="#DejaVuSans-32" transform="translate(69.482422 -16.3125) scale(0.7)"/>
    </g>
   </g>
   <g id="text_7">
    <!-- $x^{l-1}_2$ -->
    <g transform="translate(93.535 97.8) scale(0.13 -0.13)">
     <use xlink:href="#DejaVuSans-Oblique-78" transform="translate(0 0.529687)"/>
     <use xlink:href="#DejaVuSans-Oblique-6c" transform="translate(63.645833 38.810938) scale(0.7)"/>
     <use xlink:href="#DejaVuSans-2212" transform="translate(96.731771 38.810938) scale(0.7)"/>
     <use xlink:href="#DejaVuSans-31" transform="translate(169.02181 38.810938) scale(0.7)"/>
     <use xlink:href="#DejaVuSans-32" transform="translate(59.179688 -26.814063) scale(0.7)"/>
    </g>
   </g>
   <g id="text_8">
    <!-- $R_k$ -->
    <g transform="translate(220.175 133.776406) scale(0.13 -0.13)">
     <defs>
      <path id="DejaVuSans-Oblique-6b" d="M 1172 4863 
L 1747 4863 
L 1197 2028 
L 3169 3500 
L 3916 3500 
L 1716 1825 
L 3322 0 
L 2625 0 
L 1131 1709 
L 800 0 
L 225 0 
L 1172 4863 
z
" transform="scale(0.015625)"/>
     </defs>
     <use xlink:href="#DejaVuSans-Oblique-52" transform="translate(0 0.09375)"/>
     <use xlink:href="#DejaVuSans-Oblique-6b" transform="translate(69.482422 -16.3125) scale(0.7)"/>
    </g>
   </g>
   <g id="text_9">
    <!-- $x^{l-1}_k$ -->
    <g transform="translate(93.535 153.24) scale(0.13 -0.13)">
     <use xlink:href="#DejaVuSans-Oblique-78" transform="translate(0 0.465625)"/>
     <use xlink:href="#DejaVuSans-Oblique-6c" transform="translate(63.645833 38.810938) scale(0.7)"/>
     <use xlink:href="#DejaVuSans-2212" transform="translate(96.731771 38.810938) scale(0.7)"/>
     <use xlink:href="#DejaVuSans-31" transform="translate(169.02181 38.810938) scale(0.7)"/>
     <use xlink:href="#DejaVuSans-Oblique-6b" transform="translate(59.179688 -26.878125) scale(0.7)"/>
    </g>
   </g>
   <g id="text_10">
    <!-- $v_{\mathrm{out}} \approx -R_f\left(\frac{x^{l-1}_1}{R_1} + \frac{x^{l-1}_2}{R_2} + \cdots + \frac{x^{l-1}_k}{R_k}\right)$ -->
    <g transform="translate(210.62 308.08) scale(0.14 -0.14)">
     <defs>
      <path id="DejaVuSans-Oblique-76" d="M 459 3500 
L 1069 3500 
L 1581 525 
L 3256 3500 
L 3866 3500 
L 1875 0 
L 1100 0 
L 459 3500 
z
" transform="scale(0.015625)"/>
      <path id="DejaVuSans-75" d="M 544 1381 
L 544 3500 
L 1119 3500 
L 1119 1403 
Q 1119 906 1312 657 
Q 1506 409 1894 409 
Q 2359 409 2629 706 
Q 2900 1003 2900 1516 
L 2900 3500 
L 3475 3500 
L 3475 0 
L 2900 0 
L 2900 538 
Q 2691 219 2414 64 
Q 2138 -91 1772 -91 
Q 1169 -91 856 284 
Q 544 659 544 1381 
z
M 1991 3584 
L 1991 3584 
z
" transform="scale(0.015625)"/>
      <path id="DejaVuSans-2248" d="M 4684 1947 
L 4684 1388 
Q 4356 1144 4076 1036 
Q 3797 928 3494 928 
Q 3150 928 2694 1113 
Q 2663 1125 2641 1134 
Q 2622 1141 2575 1159 
Q 2091 1350 1797 1350 
Q 1522 1350 1253 1231 
Q 984 1113 678 850 
L 678 1409 
Q 1006 1653 1286 1761 
Q 1566 1869 1869 1869 
Q 2213 1869 2672 1684 
Q 2706 1669 2722 1663 
Q 2741 1656 2788 1638 
Q 3272 1447 3566 1447 
Q 3834 1447 4098 1564 
Q 4363 1681 4684 1947 
z
M 4684 3163 
L 4684 2606 
Q 4356 2359 4076 2251 
Q 3797 2144 3494 2144 
Q 3150 2144 2694 2328 
Q 2663 2341 2641 2350 
Q 2622 2356 2575 2375 
Q 2091 2566 1797 2566 
Q 1522 2566 1253 2447 
Q 984 2328 678 2069 
L 678 2625 
Q 1006 2869 1286 2976 
Q 1566 3084 1869 3084 
Q 2213 3084 2672 2900 
Q 2703 2888 2719 2881 
Q 2741 2872 2788 2853 
Q 3272 2663 3566 2663 
Q 3834 2663 4098 2780 
Q 4363 2897 4684 3163 
z
" transform="scale(0.015625)"/>
      <path id="STIXSizeTwoSym-Regular-28" d="M 3219 -1555 
L 3219 -1786 
Q 2144 -774 1517 730 
Q 890 2234 890 4115 
Q 890 6003 1533 7593 
Q 2176 9184 3219 10022 
L 3219 9811 
Q 2490 9062 1994 7606 
Q 1498 6150 1498 4115 
Q 1498 563 3219 -1555 
z
" transform="scale(0.015625)"/>
      <path id="DejaVuSans-2b" d="M 2944 4013 
L 2944 2272 
L 4684 2272 
L 4684 1741 
L 2944 1741 
L 2944 0 
L 2419 0 
L 2419 1741 
L 678 1741 
L 678 2272 
L 2419 2272 
L 2419 4013 
L 2944 4013 
z
" transform="scale(0.015625)"/>
      <path id="DejaVuSans-22ef" d="M 740 2363 
L 1400 2363 
L 1400 1569 
L 740 1569 
L 740 2363 
z
M 2868 2363 
L 3528 2363 
L 3528 1569 
L 2868 1569 
L 2868 2363 
z
M 4996 2363 
L 5656 2363 
L 5656 1569 
L 4996 1569 
L 4996 2363 
z
" transform="scale(0.015625)"/>
      <path id="STIXSizeTwoSym-Regular-29" d="M 730 9792 
L 730 10022 
Q 1805 9011 2432 7507 
Q 3059 6003 3059 4115 
Q 3059 2234 2416 643 
Q 1773 -947 730 -1786 
L 730 -1574 
Q 1459 -826 1955 633 
Q 2451 2093 2451 4115 
Q 2451 7674 730 9792 
z
" transform="scale(0.015625)"/>
     </defs>
     <use xlink:href="#DejaVuSans-Oblique-76" transform="translate(0 0.8625)"/>
     <use xlink:href="#DejaVuSans-6f" transform="translate(59.179688 -15.54375) scale(0.7)"/>
     <use xlink:href="#DejaVuSans-75" transform="translate(102.006836 -15.54375) scale(0.7)"/>
     <use xlink:href="#DejaVuSans-74" transform="translate(146.37207 -15.54375) scale(0.7)"/>
     <use xlink:href="#DejaVuSans-2248" transform="translate(196.035156 0.8625)"/>
     <use xlink:href="#DejaVuSans-2212" transform="translate(318.789062 0.8625)"/>
     <use xlink:href="#DejaVuSans-Oblique-52" transform="translate(422.060547 0.8625)"/>
     <use xlink:href="#DejaVuSans-Oblique-66" transform="translate(491.542969 -15.54375) scale(0.7)"/>
     <use xlink:href="#STIXSizeTwoSym-Regular-28" transform="translate(518.920898 -22.328125) scale(0.95926)"/>
     <use xlink:href="#DejaVuSans-Oblique-78" transform="translate(575.391266 63.8) scale(0.7)"/>
     <use xlink:href="#DejaVuSans-Oblique-6c" transform="translate(619.943349 90.596875) scale(0.49)"/>
     <use xlink:href="#DejaVuSans-2212" transform="translate(643.103505 90.596875) scale(0.49)"/>
     <use xlink:href="#DejaVuSans-31" transform="translate(693.706533 90.596875) scale(0.49)"/>
     <use xlink:href="#DejaVuSans-31" transform="translate(616.817047 44.659375) scale(0.49)"/>
     <use xlink:href="#DejaVuSans-Oblique-52" transform="translate(610.391266 -37.625) scale(0.7)"/>
     <use xlink:href="#DejaVuSans-31" transform="translate(659.028961 -49.109375) scale(0.49)"/>
     <use xlink:href="#DejaVuSans-2b" transform="translate(758.77831 0.8625)"/>
     <use xlink:href="#DejaVuSans-Oblique-78" transform="translate(862.049795 63.8) scale(0.7)"/>
     <use xlink:href="#DejaVuSans-Oblique-6c" transform="translate(906.601878 90.596875) scale(0.49)"/>
     <use xlink:href="#DejaVuSans-2212" transform="translate(929.762034 90.596875) scale(0.49)"/>
     <use xlink:href="#DejaVuSans-31" transform="translate(980.365061 90.596875) scale(0.49)"/>
     <use xlink:href="#DejaVuSans-32" transform="translate(903.475576 44.659375) scale(0.49)"/>
     <use xlink:href="#DejaVuSans-Oblique-52" transform="translate(897.049795 -37.625) scale(0.7)"/>
     <use xlink:href="#DejaVuSans-32" transform="translate(945.68749 -49.109375) scale(0.49)"/>
     <use xlink:href="#DejaVuSans-2b" transform="translate(1045.436839 0.8625)"/>
     <use xlink:href="#DejaVuSans-22ef" transform="translate(1148.708323 0.8625)"/>
     <use xlink:href="#DejaVuSans-2b" transform="translate(1268.190745 0.8625)"/>
     <use xlink:href="#DejaVuSans-Oblique-78" transform="translate(1371.462229 63.8) scale(0.7)"/>
     <use xlink:href="#DejaVuSans-Oblique-6c" transform="translate(1416.014313 90.641719) scale(0.49)"/>
     <use xlink:href="#DejaVuSans-2212" transform="translate(1439.174469 90.641719) scale(0.49)"/>
     <use xlink:href="#DejaVuSans-31" transform="translate(1489.777496 90.641719) scale(0.49)"/>
     <use xlink:href="#DejaVuSans-Oblique-6b" transform="translate(1412.888011 44.659375) scale(0.49)"/>
     <use xlink:href="#DejaVuSans-Oblique-52" transform="translate(1407.462229 -37.625) scale(0.7)"/>
     <use xlink:href="#DejaVuSans-Oblique-6b" transform="translate(1456.099925 -49.109375) scale(0.49)"/>
     <use xlink:href="#STIXSizeTwoSym-Regular-29" transform="translate(1535.366852 -22.328125) scale(0.95926)"/>
     <path d="M 575.391266 19.659375 
L 575.391266 25.909375 
L 726.795888 25.909375 
L 726.795888 19.659375 
L 575.391266 19.659375 
z
"/>
     <path d="M 862.049795 19.659375 
L 862.049795 25.909375 
L 1013.454417 25.909375 
L 1013.454417 19.659375 
L 862.049795 19.659375 
z
"/>
     <path d="M 1371.462229 19.659375 
L 1371.462229 25.909375 
L 1522.866852 25.909375 
L 1522.866852 19.659375 
L 1371.462229 19.659375 
z
"/>
    </g>
   </g>
   <g id="patch_3">
    <path d="M 473.222286 174.28 
C 473.938335 174.28 474.625152 173.995511 475.131475 173.489188 
C 475.637797 172.982866 475.922286 172.296048 475.922286 171.58 
C 475.922286 170.863952 475.637797 170.177134 475.131475 169.670812 
C 474.625152 169.164489 473.938335 168.88 473.222286 168.88 
C 472.506238 168.88 471.819421 169.164489 471.313098 169.670812 
C 470.806775 170.177134 470.522286 170.863952 470.522286 171.58 
C 470.522286 172.296048 470.806775 172.982866 471.313098 173.489188 
C 471.819421 173.995511 472.506238 174.28 473.222286 174.28 
z
" clip-path="url(#p15b9951af5)" style="stroke: #000000; stroke-width: 2; stroke-linejoin: miter"/>
   </g>
   <g id="patch_4">
    <path d="M 473.222286 174.28 
C 473.938335 174.28 474.625152 173.995511 475.131475 173.489188 
C 475.637797 172.982866 475.922286 172.296048 475.922286 171.58 
C 475.922286 170.863952 475.637797 170.177134 475.131475 169.670812 
C 474.625152 169.164489 473.938335 168.88 473.222286 168.88 
C 472.506238 168.88 471.819421 169.164489 471.313098 169.670812 
C 470.806775 170.177134 470.522286 170.863952 470.522286 171.58 
C 470.522286 172.296048 470.806775 172.982866 471.313098 173.489188 
C 471.819421 173.995511 472.506238 174.28 473.222286 174.28 
z
" clip-path="url(#p15b9951af5)" style="stroke: #000000; stroke-width: 2; stroke-linejoin: miter"/>
   </g>
  </g>
 </g>
 <defs>
  <clipPath id="p15b9951af5">
   <rect x="0" y="0" width="651.782286" height="314.3"/>
  </clipPath>
 </defs>
</svg>
